<?xml version="1.0" standalone="no"?>
<!DOCTYPE svg PUBLIC "-//W3C//DTD SVG 20010904//EN"
 "http://www.w3.org/TR/2001/REC-SVG-20010904/DTD/svg10.dtd">
<svg version="1.0" xmlns="http://www.w3.org/2000/svg"
 width="3000.000000pt" height="4000.000000pt" viewBox="0 0 3000.000000 4000.000000"
 preserveAspectRatio="xMidYMid meet">

<g transform="translate(0.000000,4000.000000) scale(0.100000,-0.100000)"
fill="#000000" stroke="none">
<path d="M0 20000 l0 -20000 15000 0 15000 0 0 20000 0 20000 -15000 0 -15000
0 0 -20000z m21135 10740 c100 -27 150 -47 193 -74 64 -40 155 -147 196 -229
70 -143 69 -129 67 -827 -3 -660 -11 -810 -48 -867 -15 -22 -19 -24 -21 -10
-2 10 2 25 10 34 11 13 12 150 10 746 -3 700 -4 733 -24 786 -25 72 -25 71
-48 106 -11 17 -24 40 -29 52 -15 33 -126 135 -184 167 -81 46 -179 65 -366
71 -339 11 -9666 15 -9796 5 -122 -10 -165 -8 -165 10 0 4 8 10 18 13 9 3 35
13 57 21 36 13 589 15 5050 15 4922 1 5011 0 5080 -19z m-10234 -53 c-10 -10
-108 -46 -128 -47 -26 0 33 45 72 56 44 12 73 8 56 -9z m1028 -1326 c8 -5 11
-16 8 -25 -5 -13 -11 -15 -26 -7 -22 12 -283 17 -323 6 -21 -5 -28 -4 -28 7 0
8 2 17 4 19 9 8 352 8 365 0z m901 -16 c0 -25 -23 -35 -35 -15 -4 7 -67 10
-170 10 -90 -1 -169 1 -175 5 -30 19 18 25 191 25 l189 0 0 -25z m898 5 c2
-13 -22 -15 -180 -12 -192 3 -213 5 -203 22 4 7 73 9 193 8 157 -3 187 -5 190
-18z m905 12 c3 -4 3 -20 0 -35 l-6 -28 -19 20 c-18 20 -30 21 -193 21 -149 0
-175 2 -175 15 0 13 28 15 194 15 107 0 197 -3 199 -8z m902 -4 c2 -7 1 -85
-4 -173 l-8 -160 -2 120 c-2 115 -6 155 -16 183 -3 9 -48 12 -179 12 -159 0
-198 5 -179 24 3 3 91 6 195 6 142 0 190 -3 193 -12z m900 -13 c0 -15 -5 -19
-20 -16 -11 2 -96 4 -190 5 -157 1 -192 6 -179 28 3 5 92 7 197 6 184 -3 192
-4 192 -23z m910 6 c0 -12 -27 -14 -161 -13 -135 2 -164 -1 -174 -13 -9 -11
-14 -61 -15 -166 -1 -82 -5 -152 -8 -156 -4 -3 -7 64 -7 151 0 90 -4 166 -10
177 -6 11 -8 24 -5 29 4 7 76 9 193 8 155 -3 187 -5 187 -17z m923 -4 c2 -10
-2 -25 -9 -33 -10 -13 -15 -12 -33 5 -19 17 -35 19 -183 18 -115 -2 -164 1
-167 10 -3 6 -2 14 2 17 3 4 91 5 196 4 174 -3 191 -5 194 -21z m930 6 c-3
-16 -19 -17 -188 -14 -102 1 -187 4 -189 6 -17 17 33 24 195 25 171 1 185 -1
182 -17z m857 -8 c0 -14 -6 -19 -20 -17 -11 2 -95 4 -187 5 -153 2 -168 4
-168 20 0 16 14 17 188 15 179 -3 187 -4 187 -23z m-7226 -147 c-1 -97 -6 -93
-12 10 -2 39 0 72 4 72 5 0 9 -37 8 -82z m3609 -39 c-1 -61 -5 -112 -10 -115
-4 -3 -8 49 -8 116 0 74 4 119 10 115 5 -3 8 -55 8 -116z m-2722 43 c-12 -12
-18 8 -10 35 l8 28 4 -28 c2 -16 1 -31 -2 -35z m6331 -59 c-2 -16 -4 -5 -4 22
0 28 2 40 4 28 2 -13 2 -35 0 -50z m-5420 -115 c-2 -18 -4 -4 -4 32 0 36 2 50
4 33 2 -18 2 -48 0 -65z m5420 50 c-3 -8 -6 -5 -6 6 -1 11 2 17 5 13 3 -3 4
-12 1 -19z m-4510 -136 c-3 -4 -72 -5 -154 -3 -105 2 -139 6 -118 12 17 5 76
8 133 8 65 -1 108 3 115 10 8 8 13 7 20 -4 4 -8 6 -18 4 -23z m1632 18 c85 0
158 3 163 6 4 3 5 -2 2 -10 -5 -14 -32 -16 -180 -16 -153 0 -174 2 -174 16 0
11 5 14 18 9 9 -4 86 -6 171 -5z m1081 -11 c0 -5 -74 -9 -180 -9 -110 0 -180
4 -180 10 0 6 64 9 165 9 91 -1 169 1 172 4 7 8 23 -1 23 -14z m1655 0 c5 -5
-37 -9 -108 -9 -103 0 -129 5 -113 21 8 8 211 -3 221 -12z m-5610 1 c3 -5 -3
-10 -14 -10 -12 0 -21 5 -21 10 0 6 6 10 14 10 8 0 18 -4 21 -10z m185 -2 c0
-5 -36 -8 -80 -8 -48 0 -80 4 -80 10 0 7 30 9 80 8 44 -2 80 -6 80 -10z m720
2 c0 -5 -12 -10 -26 -10 -14 0 -23 4 -19 10 3 6 15 10 26 10 10 0 19 -4 19
-10z m1090 0 c0 -6 -47 -10 -120 -10 -73 0 -120 4 -120 10 0 6 47 10 120 10
73 0 120 -4 120 -10z m140 0 c0 -5 -7 -10 -15 -10 -8 0 -15 5 -15 10 0 6 7 10
15 10 8 0 15 -4 15 -10z m2690 0 c0 -6 -55 -10 -145 -10 -90 0 -145 4 -145 10
0 6 55 10 145 10 90 0 145 -4 145 -10z m60 0 c0 -5 -9 -10 -20 -10 -11 0 -20
5 -20 10 0 6 9 10 20 10 11 0 20 -4 20 -10z m860 0 c0 -5 -4 -10 -10 -10 -5 0
-10 5 -10 10 0 6 5 10 10 10 6 0 10 -4 10 -10z m-10168 -2747 c3 -2459 3
-2478 23 -2508 11 -16 168 -178 349 -360 180 -181 417 -422 525 -535 192 -200
563 -578 930 -948 101 -102 197 -206 212 -231 l29 -45 0 -586 c-1 -493 2 -593
14 -635 14 -45 43 -78 307 -345 160 -162 304 -314 320 -338 l30 -42 2 -723 c2
-602 4 -726 16 -743 8 -12 11 -29 8 -38 -7 -18 -43 -22 -49 -5 -2 6 -2 328 0
716 l3 705 -30 64 c-25 54 -65 98 -294 327 -145 145 -284 290 -308 322 l-44
58 -5 622 -5 622 -26 34 c-15 19 -96 104 -180 189 -405 408 -1103 1120 -1255
1280 -34 36 -95 97 -135 137 -41 39 -94 93 -119 120 -25 26 -96 95 -158 153
-62 58 -130 129 -152 158 l-39 54 -1 2483 c0 1366 3 2490 6 2499 3 9 10 16 15
16 5 0 10 -1053 11 -2477z m5664 2023 c-2 -110 -7 -200 -10 -199 -29 8 -31 10
-17 26 11 14 12 50 8 178 -2 94 -9 164 -15 168 -5 3 -85 6 -176 6 -124 0 -166
3 -166 12 0 9 45 13 178 15 97 2 183 1 189 -1 10 -2 12 -51 9 -205z m893 205
c8 -6 11 -16 6 -31 -6 -17 -9 -19 -16 -9 -6 11 -50 15 -189 18 -102 2 -178 7
-173 12 5 5 78 10 163 12 85 1 164 3 175 5 11 1 26 -2 34 -7z m-5406 -13 c2
-7 1 -42 -3 -78 -7 -62 -7 -63 -9 -17 0 27 -6 57 -11 68 -11 20 -6 39 10 39 4
0 10 -6 13 -12z m565 -10 c-5 -32 -28 -35 -28 -4 0 17 5 26 16 26 10 0 14 -7
12 -22z m352 3 c0 -29 -18 -36 -40 -16 -11 10 -34 21 -52 25 -28 7 -23 8 30 9
55 1 62 -1 62 -18z m887 -81 c2 -74 0 -89 -8 -70 -6 14 -8 43 -5 65 4 30 0 46
-14 65 -26 33 -25 42 3 38 21 -3 22 -8 24 -98z m626 89 c-5 -5 -27 -11 -50
-15 -36 -5 -43 -4 -43 10 0 14 9 17 50 15 28 -2 47 -6 43 -10z m192 0 c5 -7
-13 -8 -57 -3 -82 9 -86 14 -10 14 33 0 64 -5 67 -11z m87 -6 c7 -32 -3 -143
-13 -137 -5 3 -9 29 -9 57 0 29 -4 59 -9 67 -6 8 -7 18 -5 22 9 14 32 8 36 -9z
m748 8 c0 -9 -207 -21 -223 -13 -4 2 -5 8 -2 13 8 12 225 12 225 0z m154 -8
c-1 -7 -2 -50 -2 -95 -2 -99 -11 -98 -15 1 -4 84 -10 91 -82 91 -37 0 -46 3
-35 10 22 15 135 8 134 -7z m2715 3 c10 -11 10 -20 1 -36 l-12 -22 -23 22
c-22 21 -34 23 -160 24 -98 1 -140 -3 -147 -11 -18 -22 -38 -15 -38 12 l0 25
184 0 c147 0 186 -3 195 -14z m911 0 c0 -19 -28 -28 -51 -16 -11 6 -77 9 -161
8 l-143 -3 -5 -45 -5 -45 -8 34 c-4 18 -7 44 -7 57 l0 24 190 0 c156 0 190 -3
190 -14z m945 -5 c0 -12 -31 -14 -182 -12 -125 2 -183 -1 -183 -8 0 -6 -4 -11
-10 -11 -5 0 -10 11 -10 25 l0 25 193 -2 c158 -3 192 -6 192 -17z m-2211 -236
c-1 -55 2 -108 8 -119 7 -13 6 -21 -3 -27 -8 -4 -16 -4 -19 1 -3 4 -3 77 -1
161 2 87 7 139 10 119 4 -19 6 -80 5 -135z m344 88 c-4 -26 -5 -25 -12 9 -5
21 -5 46 0 55 6 15 8 13 12 -9 2 -16 2 -40 0 -55z m5 -234 c-5 -5 -14 -4 -22
0 -11 7 -11 13 -1 32 l13 23 9 -24 c5 -13 5 -27 1 -31z m668 21 c64 0 98 -4
94 -10 -8 -14 -212 -13 -220 0 -4 6 -4 19 0 28 6 16 7 16 16 0 9 -15 25 -18
110 -18z m-4281 -12 c0 -5 -11 -8 -25 -8 -29 0 -33 15 -8 29 17 9 32 -1 33
-21z m-2710 12 c0 -5 -5 -10 -11 -10 -5 0 -7 5 -4 10 3 6 8 10 11 10 2 0 4 -4
4 -10z m910 -11 c0 -5 -4 -9 -10 -9 -5 0 -10 7 -10 16 0 8 5 12 10 9 6 -3 10
-10 10 -16z m4148 3 c2 -7 -3 -12 -12 -12 -9 0 -16 7 -16 16 0 17 22 14 28 -4z
m347 8 c3 -6 -1 -13 -10 -16 -19 -8 -30 0 -20 15 8 14 22 14 30 1z m1835 1 c0
-6 -5 -13 -10 -16 -15 -9 -43 3 -35 15 8 13 45 13 45 1z m605 -11 c3 -5 -3
-10 -14 -10 -11 0 -23 5 -26 10 -3 6 3 10 14 10 11 0 23 -4 26 -10z m-6929
-551 c12 -21 -13 -32 -36 -16 -15 11 -18 16 -8 20 22 9 36 8 44 -4z m-1243
-21 c-24 -23 -40 -20 -30 7 4 8 17 15 29 15 l22 0 -21 -22z m190 15 c-29 -2
-78 -2 -110 0 -32 2 -8 3 52 3 61 0 87 -1 58 -3z m1830 0 c-7 -2 -21 -2 -30 0
-10 3 -4 5 12 5 17 0 24 -2 18 -5z m107 -3 c0 -12 -8 -12 -35 0 -18 8 -17 9 8
9 15 1 27 -3 27 -9z m-1800 -10 c0 -5 -2 -10 -4 -10 -3 0 -8 5 -11 10 -3 6 -1
10 4 10 6 0 11 -4 11 -10z m8378 -47 c-45 -44 51 -42 -2717 -43 -1443 0 -2626
2 -2629 4 -9 9 42 26 118 40 61 11 546 14 2660 15 2408 1 2583 0 2568 -16z
m-5057 -1249 c8 -445 5 -429 85 -469 39 -20 64 -20 2744 -25 l2705 -5 75 -36
c127 -62 238 -181 287 -308 35 -90 43 -241 18 -338 -19 -76 -41 -129 -55 -138
-15 -9 -12 48 3 70 25 36 41 157 29 211 -6 27 -14 69 -18 94 -3 25 -24 82 -45
127 -32 68 -50 92 -101 134 -85 70 -133 100 -201 121 -56 17 -182 18 -2745 21
-2956 4 -2713 -1 -2773 64 -23 24 -28 42 -38 131 -15 139 -14 619 1 694 7 31
14 55 17 53 2 -3 8 -183 12 -401z m-2741 325 c0 -12 -29 -24 -37 -16 -3 4 -3
13 0 21 6 16 37 11 37 -5z m330 -10 c0 -5 -4 -9 -10 -9 -5 0 -10 7 -10 16 0 8
5 12 10 9 6 -3 10 -10 10 -16z m890 5 c0 -8 -4 -12 -10 -9 -5 3 -10 10 -10 16
0 5 5 9 10 9 6 0 10 -7 10 -16z m-1800 -9 c0 -9 -6 -12 -15 -9 -8 4 -15 10
-15 15 0 5 7 9 15 9 8 0 15 -7 15 -15z m-3 -182 c-2 -21 -4 -6 -4 32 0 39 2
55 4 38 2 -18 2 -50 0 -70z m912 -687 c9 -10 9 -16 1 -21 -13 -8 -42 14 -34
26 8 13 20 11 33 -5z m-909 -12 c0 -8 -4 -12 -10 -9 -5 3 -10 10 -10 16 0 5 5
9 10 9 6 0 10 -7 10 -16z m669 12 c-7 -8 -108 -10 -115 -3 -4 4 21 7 56 7 35
0 61 -2 59 -4z m148 -2 c-3 -3 -12 -4 -19 -1 -8 3 -5 6 6 6 11 1 17 -2 13 -5z
m830 0 c-3 -3 -12 -4 -19 -1 -8 3 -5 6 6 6 11 1 17 -2 13 -5z m153 -14 c0 -5
-2 -10 -4 -10 -3 0 -8 5 -11 10 -3 6 -1 10 4 10 6 0 11 -4 11 -10z m-1790
-914 c0 -21 -20 -30 -33 -17 -6 6 -35 11 -64 11 -29 0 -53 5 -53 10 0 6 32 10
75 10 59 0 75 -3 75 -14z m615 5 c38 -8 37 -9 -22 -10 -36 -1 -63 3 -63 9 0
12 30 12 85 1z m288 -6 c-2 -5 -7 -10 -13 -9 -5 1 -44 2 -85 3 -44 0 -75 5
-75 11 0 7 32 10 88 8 51 -2 86 -7 85 -13z m572 5 c4 -6 -5 -10 -20 -10 -15 0
-24 4 -20 10 3 6 12 10 20 10 8 0 17 -4 20 -10z m325 -6 c0 -12 -6 -15 -22
-10 -13 3 -39 6 -58 7 l-35 2 35 7 c61 13 80 11 80 -6z m880 -484 c0 -5 -2
-10 -4 -10 -3 0 -8 5 -11 10 -3 6 -1 10 4 10 6 0 11 -4 11 -10z m910 0 c0 -7
-24 -8 -67 -4 -91 9 -92 14 -5 14 43 0 72 -4 72 -10z m629 6 c-12 -10 -99 -16
-99 -7 0 7 22 11 52 11 28 0 49 -2 47 -4z m285 -4 c3 -5 1 -22 -4 -38 -7 -25
-8 -26 -9 -6 -1 28 -42 45 -91 39 -19 -2 -62 -1 -95 3 -50 6 -39 7 67 9 70 0
129 -3 132 -7z m774 1 c-10 -2 -26 -2 -35 0 -10 3 -2 5 17 5 19 0 27 -2 18 -5z
m127 -2 c10 -17 -9 -19 -40 -6 l-30 13 32 1 c17 1 34 -3 38 -8z m905 2 c0 -12
-358 -14 -365 -2 -4 5 66 9 179 9 102 0 186 -3 186 -7z m805 -3 c-3 -5 -15
-10 -25 -10 -10 0 -22 5 -25 10 -4 6 7 10 25 10 18 0 29 -4 25 -10z m95 -6 c0
-12 -6 -15 -22 -10 -13 3 -31 6 -40 6 -10 0 -18 5 -18 10 0 6 18 10 40 10 30
0 40 -4 40 -16z m-6650 -474 c0 -5 -4 -10 -10 -10 -5 0 -10 5 -10 10 0 6 5 10
10 10 6 0 10 -4 10 -10z m340 -5 c0 -17 -2 -18 -24 -9 -23 9 -20 24 4 24 11 0
20 -7 20 -15z m897 3 c-4 -14 -55 -12 -91 2 -15 6 -5 9 37 9 43 1 57 -2 54
-11z m-1807 -14 c0 -14 -3 -14 -15 -4 -8 7 -15 14 -15 16 0 2 7 4 15 4 8 0 15
-7 15 -16z m6935 -475 c-4 -5 -14 -9 -24 -9 -10 0 -36 -7 -57 -16 -36 -15
-189 -17 -1763 -16 -1644 0 -1835 3 -1707 27 82 16 478 20 1979 22 961 1 1575
-2 1572 -8z m-4230 -18 c9 -15 -14 -24 -43 -16 -20 5 -23 8 -11 16 18 11 46
12 54 0z m-1795 -432 c0 -17 -4 -19 -17 -13 -10 5 -73 10 -141 12 -166 4 -148
22 24 22 130 0 134 -1 134 -21z m563 6 c-4 -15 -36 -12 -41 3 -3 9 3 13 19 10
13 -1 23 -7 22 -13z m227 5 c0 -5 -12 -10 -27 -9 -25 0 -26 1 -8 9 27 12 35
12 35 0z m-2848 -1600 c3 -1325 4 -1376 22 -1410 10 -19 116 -131 235 -249
314 -311 807 -801 916 -911 331 -336 678 -671 719 -695 38 -22 62 -29 119 -31
40 -2 70 -7 68 -11 -2 -4 -26 -15 -54 -24 -44 -14 -57 -14 -96 -2 -25 7 -63
25 -83 38 -43 29 -279 260 -1168 1147 -349 348 -652 654 -673 679 l-37 46 0
1360 c0 748 3 1381 6 1407 4 26 11 43 15 39 5 -5 10 -627 11 -1383z m4463
-675 c5 -1433 1 -1653 -32 -1685 -14 -13 -15 -11 -9 27 3 23 6 716 6 1540 0
824 3 1516 7 1538 l7 40 8 -35 c4 -19 10 -660 13 -1425z m-1690 205 c-3 -5
-44 -10 -91 -10 -49 0 -84 4 -84 10 0 6 37 10 91 10 57 0 88 -4 84 -10z m172
-6 c-3 -3 -12 -4 -19 -1 -8 3 -5 6 6 6 11 1 17 -2 13 -5z m-1800 -916 c-2 -24
-4 -7 -4 37 0 44 2 63 4 43 2 -21 2 -57 0 -80z m-4399 -5007 c1 -159 -1 -248
-8 -256 -8 -10 -188 -12 -878 -10 -477 1 -872 1 -877 -2 -7 -2 -11 -149 -13
-417 -3 -402 -3 -415 16 -425 13 -7 277 -10 806 -8 647 2 787 0 791 -11 9 -23
5 -451 -4 -456 -4 -3 -364 -6 -800 -7 -542 0 -793 -4 -797 -11 -4 -6 -9 -308
-11 -672 -3 -363 -6 -663 -8 -665 -6 -5 -547 -1 -557 5 -10 6 -11 3168 -1
3177 3 4 531 6 1172 5 l1166 -3 3 -244z m2157 163 c22 -45 46 -97 54 -115 7
-19 22 -52 31 -74 10 -22 21 -47 24 -55 3 -8 10 -22 15 -30 15 -25 81 -170 81
-177 0 -8 49 -115 76 -165 8 -14 14 -31 14 -37 0 -6 16 -46 36 -88 36 -79 49
-109 77 -173 17 -38 50 -112 92 -205 15 -33 40 -88 56 -123 16 -34 29 -64 29
-67 0 -3 14 -36 31 -73 17 -37 39 -85 48 -107 10 -22 32 -71 50 -108 17 -37
31 -73 31 -78 0 -6 7 -23 14 -37 8 -15 23 -45 32 -67 9 -22 38 -85 64 -140 26
-55 51 -111 55 -125 4 -14 11 -29 15 -35 4 -5 33 -71 65 -145 32 -74 62 -139
66 -144 5 -6 9 -16 9 -23 0 -7 16 -48 36 -90 47 -101 54 -118 114 -258 25 -59
33 -76 100 -219 28 -60 50 -118 48 -129 -3 -19 -9 -20 -306 -18 -167 1 -310 5
-318 8 -8 3 -14 12 -14 19 0 8 -13 42 -29 77 -16 34 -48 105 -71 157 -23 52
-55 123 -71 156 -16 34 -29 68 -29 76 0 8 -4 18 -9 24 -6 5 -24 45 -41 88 -18
44 -38 85 -45 93 -11 11 -153 13 -781 11 -669 -3 -768 -5 -775 -18 -5 -8 -23
-46 -40 -85 -17 -38 -58 -125 -90 -192 -32 -67 -59 -126 -59 -131 0 -6 -7 -23
-15 -39 -24 -46 -85 -196 -85 -209 0 -33 -26 -36 -360 -35 -182 0 -335 3 -340
6 -9 6 30 99 49 118 6 6 11 17 11 24 0 12 91 212 111 243 12 19 40 77 78 160
16 36 43 96 60 133 18 38 36 78 42 90 5 12 21 42 34 66 14 24 25 48 25 52 0 4
21 52 46 106 49 105 66 142 109 243 15 36 61 133 101 215 40 83 79 166 87 185
23 55 56 127 104 230 24 52 48 104 53 115 5 11 25 56 45 100 20 44 43 96 52
115 8 19 23 53 33 75 73 159 90 196 110 240 12 28 36 79 52 115 16 36 33 74
38 85 5 11 38 82 74 157 36 75 66 139 66 142 0 3 14 34 30 68 17 34 30 67 30
73 0 33 22 35 330 33 l305 -3 40 -81z m2681 -30 c44 -63 84 -123 89 -132 17
-28 140 -208 236 -347 85 -122 432 -640 454 -677 5 -9 40 -61 76 -116 37 -54
74 -112 82 -128 8 -16 24 -37 35 -47 20 -18 21 -18 37 0 9 10 31 41 49 68 33
52 141 208 209 305 21 30 88 129 149 220 61 91 115 166 119 168 5 2 9 8 9 13
0 10 83 133 111 165 11 11 19 24 19 28 0 3 21 35 48 70 26 35 90 125 142 201
52 76 116 167 142 204 26 36 53 77 60 91 l13 25 290 3 c160 1 300 0 313 -3
l22 -5 -2 -1588 -3 -1587 -274 -3 c-197 -2 -277 1 -288 9 -12 10 -14 180 -13
1128 1 1015 0 1116 -14 1119 -11 2 -22 -9 -32 -33 -15 -36 -61 -108 -159 -250
-26 -38 -95 -137 -151 -220 -57 -82 -118 -170 -135 -195 -18 -25 -60 -88 -95
-140 -65 -96 -116 -171 -202 -292 -26 -37 -62 -89 -80 -115 -74 -107 -132
-189 -139 -198 -5 -5 -22 -31 -38 -57 -32 -49 -54 -61 -95 -51 -34 8 -48 20
-71 62 -11 20 -40 64 -64 99 -25 35 -45 67 -45 72 0 4 -3 10 -7 12 -10 4 -42
49 -248 353 -34 50 -85 123 -113 163 -29 39 -52 74 -52 76 0 4 -145 225 -236
359 -84 125 -134 203 -141 217 -3 8 -12 22 -19 30 -7 8 -24 39 -39 68 -19 37
-32 52 -43 49 -10 -2 -15 -9 -12 -18 3 -8 6 -517 8 -1131 2 -899 0 -1118 -10
-1118 -106 -4 -555 3 -560 8 -9 9 -11 3158 -3 3172 4 6 125 10 300 10 l293 0
78 -116z m6053 102 c17 -20 11 -470 -7 -488 -10 -10 -114 -12 -515 -10 -276 2
-508 -1 -515 -6 -10 -7 -12 -277 -12 -1335 0 -961 -3 -1328 -11 -1333 -15 -9
-532 -5 -541 4 -4 4 -8 604 -8 1334 -1 1194 -2 1327 -16 1332 -9 3 -243 6
-521 6 -278 -1 -508 2 -512 5 -8 8 -15 470 -7 490 5 13 163 15 1329 15 1115 0
1326 -2 1336 -14z m2406 -3 c17 -7 62 -16 100 -22 109 -15 224 -45 288 -77 16
-8 33 -14 39 -14 9 0 113 -60 143 -82 124 -92 231 -198 274 -272 14 -22 28
-42 33 -44 4 -2 8 -12 8 -22 0 -10 5 -22 11 -25 11 -7 59 -107 59 -123 0 -5 7
-23 15 -38 8 -16 15 -39 15 -50 0 -12 7 -41 15 -64 24 -67 21 -325 -5 -421
-28 -107 -57 -186 -81 -228 -135 -225 -258 -343 -439 -420 -30 -13 -68 -29
-85 -36 -16 -7 -39 -16 -50 -18 -11 -3 -38 -12 -60 -21 -32 -12 -39 -19 -37
-37 1 -13 6 -26 10 -29 4 -3 21 -25 37 -50 16 -25 33 -47 36 -50 5 -4 84 -122
114 -172 5 -9 37 -56 69 -105 33 -48 73 -108 89 -133 17 -25 69 -101 115 -170
208 -306 292 -432 292 -441 0 -11 28 -11 -350 -9 -257 1 -329 4 -346 15 -12 8
-43 47 -70 87 -54 82 -54 80 -109 175 -22 37 -44 76 -50 85 -9 15 -73 112
-156 236 -16 23 -29 45 -29 48 0 4 -16 28 -35 54 -19 26 -35 50 -35 53 0 3
-23 41 -52 84 -29 43 -73 116 -98 163 -39 72 -53 88 -90 108 -43 21 -52 22
-372 22 -180 0 -328 -3 -328 -7 0 -5 -1 -254 -3 -555 -1 -409 -5 -550 -14
-559 -15 -15 -543 -13 -558 2 -10 10 -21 3139 -11 3166 5 11 141 13 838 11
609 -3 841 -6 863 -15z m2423 -1575 c2 -1504 1 -1588 -15 -1595 -10 -4 -138
-7 -285 -5 l-268 3 -2 1582 c-2 907 1 1587 6 1595 7 9 71 12 285 10 l276 -3 3
-1587z m1475 1570 c19 -19 103 -138 227 -320 14 -20 66 -93 115 -163 50 -70
104 -146 120 -170 17 -23 38 -53 47 -66 56 -77 117 -164 148 -209 19 -29 46
-64 59 -78 l24 -26 34 39 c32 37 181 241 213 291 18 28 103 147 215 299 45 61
123 169 175 240 51 72 105 142 119 158 l25 27 320 0 c177 0 327 -4 335 -9 12
-8 8 -19 -20 -66 -19 -31 -41 -64 -49 -73 -15 -16 -108 -138 -181 -238 -32
-44 -227 -304 -247 -329 -4 -5 -19 -26 -32 -45 -13 -19 -28 -39 -33 -45 -13
-17 -109 -149 -167 -232 -30 -43 -60 -85 -67 -93 -7 -8 -47 -63 -90 -121 -43
-58 -99 -134 -125 -168 -27 -35 -48 -74 -48 -87 0 -13 13 -38 28 -56 15 -18
40 -51 55 -73 15 -22 47 -69 72 -105 54 -76 116 -167 130 -189 6 -9 28 -40 50
-71 22 -30 65 -91 95 -135 29 -44 68 -99 84 -121 17 -23 38 -52 46 -64 8 -12
29 -41 45 -64 17 -22 55 -79 85 -126 30 -47 69 -105 87 -130 18 -25 36 -50 40
-56 5 -5 13 -17 18 -26 12 -19 134 -198 197 -287 76 -108 108 -165 99 -174 -6
-6 -160 -9 -353 -8 -380 2 -368 0 -410 70 -12 22 -86 134 -162 248 -77 114
-183 274 -236 354 -54 80 -115 170 -136 200 -85 119 -224 333 -224 345 0 11
-21 24 -39 24 -7 0 -64 -84 -112 -165 -13 -22 -27 -44 -32 -50 -4 -5 -38 -55
-74 -110 -36 -55 -103 -156 -149 -225 -45 -69 -87 -129 -91 -135 -8 -9 -40
-55 -172 -245 -25 -36 -60 -87 -78 -115 -43 -66 -51 -77 -98 -143 l-40 -55
-340 1 c-187 1 -343 2 -347 2 -11 0 -10 27 0 32 4 2 50 64 102 138 52 74 126
178 165 230 81 108 127 173 199 280 27 41 62 89 77 105 15 17 59 77 98 135 78
114 106 154 196 276 33 45 98 134 145 199 47 65 111 150 143 190 31 40 57 80
57 89 0 9 -25 52 -55 94 -31 42 -96 136 -145 207 -49 72 -93 135 -98 140 -40
49 -149 205 -218 310 -18 28 -38 56 -44 63 -6 7 -29 38 -50 70 -71 104 -100
143 -125 170 -14 15 -25 30 -25 34 0 3 -6 13 -13 20 -7 7 -33 42 -57 78 -24
36 -46 67 -49 70 -3 3 -16 20 -29 38 -60 85 -82 121 -82 133 0 7 -12 25 -26
40 -14 15 -23 32 -20 38 5 8 113 11 342 11 334 0 335 0 357 -22z m-16860
-4343 c32 -8 69 -15 83 -15 40 0 221 -77 243 -104 10 -12 9 -19 -3 -38 -8 -13
-22 -48 -32 -78 -28 -87 -61 -122 -81 -85 -11 18 -117 57 -248 91 -76 19 -113
24 -155 19 -78 -8 -144 -35 -192 -76 -38 -33 -42 -40 -46 -95 -4 -53 -1 -63
22 -90 15 -19 54 -43 98 -61 70 -29 93 -36 218 -68 202 -51 284 -89 357 -164
46 -47 60 -70 97 -154 48 -110 -5 -317 -107 -414 -84 -81 -194 -126 -353 -144
-133 -15 -244 -3 -365 40 -59 20 -201 94 -231 120 -19 16 -25 66 -9 75 4 3 11
22 14 42 6 38 41 84 64 84 12 0 144 -58 195 -85 14 -8 35 -15 46 -15 11 0 33
-7 48 -15 21 -11 63 -15 159 -15 117 0 135 3 180 25 62 30 75 41 103 86 33 55
30 124 -8 176 -17 22 -45 48 -63 56 -102 49 -171 77 -188 77 -10 0 -38 6 -61
14 -24 7 -77 24 -118 36 -41 13 -89 29 -107 36 -17 8 -37 14 -45 14 -16 0 -82
43 -121 79 -16 14 -41 49 -55 76 -23 45 -26 61 -26 160 0 105 2 113 32 170 61
113 145 181 278 224 80 26 93 28 214 30 66 0 127 -5 163 -14z m2202 4 c22 -6
58 -14 81 -19 40 -9 114 -39 124 -51 5 -6 21 -14 100 -55 35 -18 190 -169 190
-184 0 -5 6 -15 13 -22 20 -21 76 -142 95 -205 25 -84 24 -314 -2 -403 -51
-180 -146 -308 -303 -413 -63 -42 -108 -60 -263 -108 -30 -9 -97 -14 -205 -14
-163 0 -194 5 -303 51 -18 8 -38 14 -45 14 -21 0 -157 95 -209 145 -86 83
-188 262 -188 331 0 11 -7 37 -15 59 -19 55 -18 183 3 285 9 47 20 90 24 95 3
6 11 29 17 52 15 53 98 179 160 241 54 53 116 98 176 126 22 10 54 25 70 33
32 15 83 29 150 43 60 11 284 11 330 -1z m10051 -10 c38 -11 78 -25 89 -30 11
-5 33 -13 49 -19 86 -32 245 -168 307 -265 41 -63 89 -171 89 -198 0 -13 7
-41 15 -60 10 -24 15 -70 15 -138 0 -276 -117 -493 -345 -640 -105 -68 -166
-90 -310 -111 -106 -15 -316 -4 -395 22 -168 54 -294 146 -393 287 -20 29 -37
60 -37 68 0 8 -4 15 -9 15 -10 0 -55 135 -71 217 -13 65 -9 220 9 308 5 28 22
73 36 100 15 28 39 72 53 100 36 67 150 185 231 239 93 62 143 81 291 116 19
4 96 8 171 9 111 1 148 -3 205 -20z m4499 3 c17 -6 46 -15 65 -20 88 -25 222
-85 241 -109 9 -10 10 -20 3 -31 -11 -18 -38 -71 -69 -134 -19 -39 -38 -48
-52 -24 -8 13 -59 39 -98 49 -11 3 -54 18 -95 32 -128 45 -276 34 -378 -27
-61 -37 -81 -126 -44 -188 20 -32 84 -80 108 -80 8 0 25 -5 36 -11 22 -12 87
-30 188 -53 30 -7 62 -15 70 -19 8 -3 31 -10 50 -16 110 -31 220 -94 258 -148
55 -78 67 -122 67 -248 0 -110 -2 -124 -27 -175 -62 -125 -190 -212 -383 -262
-65 -16 -340 -3 -400 20 -158 59 -255 112 -269 147 -6 16 29 129 50 163 19 29
29 28 121 -14 192 -87 193 -88 338 -92 122 -3 134 -1 185 22 102 47 130 86
130 180 0 66 -1 67 -44 109 -32 31 -66 50 -132 75 -49 18 -95 32 -103 32 -7 0
-34 7 -60 15 -25 8 -80 24 -121 36 -193 56 -261 104 -319 225 -31 64 -33 75
-29 149 4 68 10 92 44 160 32 65 50 89 99 128 67 54 119 81 185 97 25 6 59 15
75 20 39 12 271 6 310 -8z m-12740 -18 c20 -5 20 -13 20 -589 0 -321 4 -587 8
-592 5 -4 169 -10 365 -13 l357 -5 0 -110 0 -110 -490 3 c-269 2 -493 6 -497
8 -5 3 -8 320 -8 704 0 657 1 699 18 703 25 7 203 8 227 1z m1898 -2 c16 -4
17 -34 17 -459 0 -477 1 -484 46 -593 23 -55 111 -139 146 -140 7 0 22 -7 32
-15 15 -11 50 -15 143 -15 122 0 124 0 196 36 77 39 124 83 156 148 31 64 42
236 41 654 -1 300 1 377 12 383 15 10 208 12 232 3 14 -5 16 -56 16 -468 0
-416 -2 -469 -19 -545 -11 -46 -24 -88 -30 -94 -6 -6 -11 -17 -11 -23 0 -15
-68 -118 -102 -154 -33 -36 -73 -62 -148 -97 -135 -63 -161 -68 -340 -68 -181
0 -265 16 -355 70 -116 67 -244 235 -245 321 0 17 -7 53 -15 80 -20 67 -23
969 -2 978 14 6 202 4 230 -2z m3131 -2 c9 -10 19 -196 12 -224 l-6 -26 -225
0 -225 0 -2 -582 -3 -583 -113 -3 c-66 -2 -119 1 -126 7 -9 7 -12 151 -13 582
-1 314 -4 574 -7 576 -3 3 -101 4 -219 4 -181 -2 -215 0 -220 13 -9 22 -10
222 -2 236 5 9 146 11 575 8 313 -2 571 -5 574 -8z m1210 4 c14 -6 16 -77 16
-710 l0 -704 -22 -5 c-13 -3 -70 -5 -128 -3 l-105 3 -3 704 c-2 557 0 706 10
713 15 9 209 11 232 2z m3761 -19 c11 -12 47 -54 79 -95 33 -41 62 -77 66 -80
3 -3 37 -46 76 -96 86 -109 88 -112 156 -192 29 -35 68 -85 86 -110 19 -26 59
-76 90 -110 31 -35 63 -74 71 -85 8 -12 35 -44 59 -72 25 -27 49 -60 55 -72 6
-14 19 -23 32 -23 21 0 21 3 18 108 -2 59 -4 272 -6 474 -2 304 0 368 11 373
22 8 216 6 230 -3 10 -7 12 -156 10 -713 l-3 -704 -95 -2 c-103 -3 -137 7
-156 46 -7 13 -29 44 -50 69 -86 102 -99 117 -104 122 -3 3 -28 34 -55 69 -48
61 -151 187 -215 263 -17 20 -52 65 -78 100 -26 35 -61 79 -79 98 -17 19 -64
78 -104 130 -39 52 -76 95 -81 95 -7 0 -11 -169 -13 -486 -1 -267 -5 -490 -8
-496 -4 -6 -54 -10 -124 -9 l-118 1 -5 700 c-3 438 -1 705 5 714 7 10 35 12
120 10 95 -4 113 -7 130 -24z"/>
<path d="M8407 14343 c-3 -10 -8 -30 -11 -45 -6 -28 -42 -111 -106 -243 -21
-44 -54 -116 -73 -160 -19 -44 -44 -100 -55 -125 -11 -25 -39 -88 -61 -141
-22 -53 -58 -135 -81 -183 -22 -48 -40 -89 -40 -92 0 -3 -23 -53 -51 -112 -28
-58 -52 -120 -53 -137 l-1 -30 555 0 555 0 -3 30 c-2 16 -10 41 -17 55 -17 32
-58 124 -75 170 -7 19 -30 72 -51 117 -22 45 -39 85 -39 88 0 6 -10 30 -65
150 -8 17 -26 62 -41 100 -34 90 -76 190 -124 290 -43 90 -66 143 -100 228
-24 58 -53 77 -63 40z"/>
<path d="M18806 14522 c-26 -3 -28 -6 -20 -35 8 -32 10 -574 4 -867 l-4 -155
520 -3 c423 -2 527 0 564 12 25 8 70 22 100 31 114 36 231 130 280 225 89 174
93 359 13 530 -24 52 -130 152 -188 176 -182 78 -225 83 -780 86 -253 2 -473
2 -489 0z"/>
<path d="M8885 10444 c-157 -30 -291 -119 -353 -234 -73 -139 -89 -270 -48
-402 49 -156 124 -248 256 -313 41 -20 87 -43 102 -51 36 -19 238 -18 293 1
22 8 46 15 53 15 28 0 154 84 192 128 62 70 106 143 120 197 16 63 25 262 12
278 -5 7 -13 28 -17 47 -23 108 -156 253 -275 298 -116 44 -225 56 -335 36z"/>
<path d="M18835 10439 c-33 -11 -64 -24 -69 -29 -6 -6 -16 -10 -23 -10 -22 0
-107 -59 -147 -103 -88 -96 -117 -159 -138 -301 -10 -68 -8 -82 21 -206 21
-86 86 -183 175 -260 38 -32 112 -70 137 -70 11 0 31 -7 44 -16 19 -13 49 -15
162 -12 135 3 140 4 208 38 100 50 154 96 213 183 37 52 47 76 73 169 24 85
24 142 1 238 -31 126 -86 213 -182 287 -133 102 -327 139 -475 92z"/>
</g>
</svg>
